HIERARCHY
ROOT Hips
{
  OFFSET -35.2597 29.1586 114.425
  CHANNELS 6 Xposition Yposition Zposition Zrotation Xrotation Yrotation
  JOINT LeftUpLeg
  {
    OFFSET 8.64259 1.95398 -2.38835
    CHANNELS 3 Zrotation Xrotation Yrotation
    JOINT LeftLeg
    {
      OFFSET 43.7702 0 0
      CHANNELS 3 Zrotation Xrotation Yrotation
      JOINT LeftFoot
      {
        OFFSET 40.6238 0 0
        CHANNELS 3 Zrotation Xrotation Yrotation
        JOINT LeftToeBase
        {
          OFFSET 12.7242 0 0
          CHANNELS 3 Zrotation Xrotation Yrotation
          End Site
          {
            OFFSET 0 0 0
          }
        }
      }
    }
  }
  JOINT RightUpLeg
  {
    OFFSET -8.2249 1.95398 -2.59336
    CHANNELS 3 Zrotation Xrotation Yrotation
    JOINT RightLeg
    {
      OFFSET 43.5653 0 0
      CHANNELS 3 Zrotation Xrotation Yrotation
      JOINT RightFoot
      {
        OFFSET 40.6238 0 0
        CHANNELS 3 Zrotation Xrotation Yrotation
        JOINT RightToeBase
        {
          OFFSET 12.7242 0 0
          CHANNELS 3 Zrotation Xrotation Yrotation
          End Site
          {
            OFFSET 0 0 0
          }
        }
      }
    }
  }
  JOINT Spine
  {
    OFFSET 0.165834 0.87714 6.61349
    CHANNELS 3 Zrotation Xrotation Yrotation
    JOINT Spine1
    {
      OFFSET 7.38963 1.71661e-005 0
      CHANNELS 3 Zrotation Xrotation Yrotation
      JOINT Spine2
      {
        OFFSET 11.9445 1.14441e-005 0
        CHANNELS 3 Zrotation Xrotation Yrotation
        JOINT Spine3
        {
          OFFSET 14.7254 4.19617e-005 0
          CHANNELS 3 Zrotation Xrotation Yrotation
          JOINT Spine4
          {
            OFFSET 10.9679 0 0
            CHANNELS 3 Zrotation Xrotation Yrotation
            JOINT RightShoulder
            {
              OFFSET 2.46616 -1.6653 3.69651
              CHANNELS 3 Zrotation Xrotation Yrotation
              JOINT RightArm
              {
                OFFSET 13.0012 0 0
                CHANNELS 3 Zrotation Xrotation Yrotation
                JOINT RightForeArm
                {
                  OFFSET 28.7848 1.62311e-005 0
                  CHANNELS 3 Zrotation Xrotation Yrotation
                  JOINT RightHand
                  {
                    OFFSET 26.5688 1.62095e-005 0
                    CHANNELS 3 Zrotation Xrotation Yrotation
                    End Site
                    {
                      OFFSET 0 0 0
                    }
                  }
                }
              }
            }
            JOINT LeftShoulder
            {
              OFFSET 2.38034 -1.29275 -3.7523
              CHANNELS 3 Zrotation Xrotation Yrotation
              JOINT LeftArm
              {
                OFFSET 16.3182 6.07031e-005 0
                CHANNELS 3 Zrotation Xrotation Yrotation
                JOINT LeftForeArm
                {
                  OFFSET 27.0901 0 0
                  CHANNELS 3 Zrotation Xrotation Yrotation
                  JOINT LeftHand
                  {
                    OFFSET 24.5451 1.51738e-005 0
                    CHANNELS 3 Zrotation Xrotation Yrotation
                    End Site
                    {
                      OFFSET 0 0 0
                    }
                  }
                }
              }
            }
            JOINT Neck
            {
              OFFSET 5.0226 -0.0266342 0
              CHANNELS 3 Zrotation Xrotation Yrotation
              JOINT Head
              {
                OFFSET 6.69364 2.86102e-005 0
                CHANNELS 3 Zrotation Xrotation Yrotation
                End Site
                {
                  OFFSET 0 0 0
                }
              }
            }
          }
        }
      }
    }
  }
}
MOTION
Frames:	17
Frame Time:	0.0416667
-257.934 90.0015 -223.987 101.812 -44.7101 97.4614 -174.356 34.9158 86.0917 -33.641 4.05645 -2.73061 65.4434 4.36206 3.69064 23.624 -1.29411 -2.39877 172.341 -4.86624 91.0611 -49.3809 -16.8412 -1.02568 81.3737 -15.8897 -6.67997 36.8225 -4.81499 7.16799 1.26327 8.23984 -90.493 10.4066 2.29068 -1.18038 -1.263 2.23652 -1.28008 -23.8135 2.53947 -0.436998 -3.80081 2.53947 -0.436998 89.1375 -29.2401 -108.777 29.6911 9.30878 -36.5265 -3.0905 4.43466 -4.94188 -17.6908 15.6208 -90.0373 -85.6316 -53.325 85.741 -25.3094 -3.69848 36.3553 -2.92638 -0.979913 -95.1665 -19.1426 4.99005 -37.8697 9.76074 -3.78463 -0.182172 -9.531 -3.618 -0.728144 
-250.981 91.811 -216.481 104.209 -42.6379 99.292 -176.323 26.1716 86.1578 -12.9698 7.94138 -2.00584 60.4944 2.10437 0.459566 26.3073 -1.59979 0.654622 172.103 -13.7043 90.4088 -43.8569 -17.647 -1.16247 69.7659 -6.25108 -6.07427 41.7584 -7.47154 14.8635 1.47153 8.23243 -90.5056 10.4249 2.69976 -1.24294 -1.24399 2.64246 -1.36063 -23.8007 2.94842 -0.373487 -3.78802 2.94841 -0.373494 89.1584 -28.377 -109.098 32.4932 7.84512 -3.60672 -2.42402 0.951791 -41.4418 -23.3331 15.8852 -74.9658 -86.0501 -52.092 84.96 -24.7434 -3.89535 42.6341 -2.1983 -0.739668 -100.065 -14.1696 3.15006 -34.4608 5.98043 -5.69971 -2.42641 -10.1375 -5.11594 -0.584497 
-244.379 92.7518 -208.941 102.688 -42.1991 99.1576 -177.446 24.2586 87.1658 -7.11239 7.31923 -1.85712 58.3472 1.15057 -1.58451 24.2662 -4.53544 4.09621 175.127 -15.344 93.3165 -45.7753 -21.027 -2.9258 61.1662 0.770757 1.29143 25.8835 -0.457792 4.91204 1.67784 7.80247 -90.5194 11.2899 3.0975 -1.33609 -0.378165 3.0357 -1.47122 -22.9424 3.3557 -0.342457 -2.92974 3.35571 -0.342461 88.9826 -28.0995 -109.574 33.3906 6.61027 24.7142 -4.95538 -0.915037 -67.9824 -21.2955 11.509 -62.6117 -86.055 -49.446 84.5655 -26.1451 -0.19316 48.1791 -6.22327 0.284553 -103.636 -9.83196 1.66994 -31.1735 -0.656957 -6.23603 -4.91241 -8.48519 -5.43389 -1.68521 
-237.912 92.0051 -202.191 102.175 -43.9725 99.9204 -175.789 25.4688 88.0678 -14.9992 8.71862 -1.97943 57.8489 -0.379524 -3.01012 25.3896 -3.85932 3.98219 176.197 -12.8671 93.411 -54.142 -23.5038 -3.92675 57.2999 2.84531 -0.996264 18.6654 1.82511 6.47137 1.95158 7.5981 -90.5815 11.7055 3.6089 -1.53737 0.0384005 3.53777 -1.69485 -22.5358 3.90388 -0.380203 -2.52313 3.90387 -0.380207 89.7141 -27.7042 -108.253 31.5218 8.50757 42.2776 -13.6933 -2.06872 -83.1283 -8.33697 3.9036 -60.2129 -86.2258 -48.967 84.2341 -25.7089 -1.52416 48.6723 -5.43562 0.0975865 -103.498 -12.6712 2.37269 -31.2008 -1.18283 -6.83761 -6.45337 -9.80669 -5.92208 -0.59451 
-231.508 91.1118 -195.806 105.357 -45.2797 102.297 -174.04 26.7858 88.5551 -27.7905 16.6285 -3.41247 50.9625 -6.80755 1.45673 22.448 -0.271115 -5.30582 174.104 -10.9862 90.7943 -62.5259 -11.5841 -3.19041 60.4225 0.394412 -1.99709 15.3151 2.44456 7.9871 1.83309 7.78746 -90.6103 11.3244 3.3635 -1.5509 -0.343291 3.29197 -1.69755 -22.9122 3.67391 -0.467154 -2.89961 3.67393 -0.467153 89.8142 -27.5668 -108.107 31.463 7.82769 46.1963 -12.8948 -1.16489 -87.3465 -3.02849 1.23371 -60.3523 -86.5687 -50.7473 83.9919 -24.0331 -5.78044 51.0496 -3.51957 -0.159591 -105.128 -14.5062 2.80588 -31.1287 -0.118407 -5.57266 -6.0252 -10.4481 -4.7421 0.474528 
-226.452 89.9818 -190.394 107.962 -44.7727 102.137 -171.898 28.0689 85.7187 -43.9653 18.8465 -4.13236 63.7747 2.66889 6.40244 6.57811 -12.9351 0.969568 170.994 -5.16201 86.7467 -72.579 0.399056 -2.56089 66.0347 -3.77906 -1.95126 16.6461 2.65482 6.31271 1.31739 8.01864 -90.301 10.8498 2.48422 -0.82805 -0.819018 2.44536 -0.936632 -23.3737 2.61816 -0.0426493 -3.36108 2.61817 -0.0426489 89.0679 -30.2234 -108.515 31.1824 7.78011 46.5504 -14.4577 -1.00023 -89.0396 -5.58203 2.43894 -57.9179 -86.5335 -51.605 84.1752 -22.9289 -9.50471 46.4799 -0.392558 -0.894304 -100.481 -19.9593 4.47558 -33.345 0.537848 -3.95187 -7.0142 -10.2426 -3.0696 1.99184 
-221.597 88.4423 -185.68 113.36 -42.4584 99.4024 -171.063 22.2955 79.0189 -51.2814 16.4977 -4.35274 68.3996 6.9841 8.16056 14.4551 -8.21642 1.02833 169.317 2.19058 81.0735 -83.7787 1.46182 -3.87728 70.8174 -7.57665 -4.32472 15.2267 2.95799 6.83306 0.562306 8.74904 -89.5361 9.37216 1.32918 0.831289 -2.29839 1.36448 0.771987 -24.8338 1.01787 1.19229 -4.82119 1.01787 1.19229 89.1487 -32.5214 -107.45 30.8707 8.40591 45.0908 -14.8178 -1.21769 -87.8305 -4.2872 1.88062 -59.9324 -86.652 -52.2272 84.0947 -23.0127 -9.87207 36.2862 -0.548052 -2.25864 -93.7931 -21.7307 4.88046 -32.9236 3.97816 -2.87824 -7.45748 -12.0932 -1.68303 1.4485 
-216.828 87.22 -181.375 117.307 -39.936 98.4999 -172.02 16.3768 75.5902 -57.1674 14.7914 -3.98554 75.0148 12.8693 8.70423 16.633 -9.13087 4.22966 170.933 10.3193 77.8542 -90.4753 -2.30713 -4.54885 72.1166 -9.13689 -6.86026 16.8505 1.80339 8.17508 -0.268573 9.30771 -89.0958 8.25503 -0.138108 1.79167 -3.41718 -0.0591486 1.79602 -25.9435 -0.670137 1.66741 -5.93082 -0.670137 1.6674 89.4578 -32.8097 -106.757 32.7805 5.5098 43.9958 -8.37785 -0.781469 -87.085 -6.74874 3.12053 -59.408 -87.2199 -51.2703 83.1066 -23.3525 -8.85045 28.5048 -0.80907 -0.371145 -89.3615 -21.0128 4.65521 -32.7197 4.90723 -1.20798 -8.38565 -11.0792 0.176651 1.8427 
-212.691 86.3676 -176.795 112.679 -47.7792 98.9177 -167.031 18.0874 79.2696 -61.2901 12.2271 -5.01067 82.4741 18.5309 7.49825 18.9698 -8.4515 5.38949 179.382 24.9938 83.8412 -89.6977 1.14891 -5.24909 75.1421 -11.282 -5.51748 16.6345 1.78297 8.41875 -0.0326306 8.81432 -89.3905 9.24258 0.208197 1.19238 -2.42888 0.260471 1.18205 -24.9597 -0.159756 1.19982 -4.94702 -0.159771 1.19981 89.2103 -32.994 -107.159 33.0438 4.832 44.3549 -5.66318 -0.47139 -87.9719 -8.8736 4.03644 -57.4565 -87.5746 -51.1975 82.5688 -22.7805 -10.5816 19.417 1.72314 -1.09224 -82.2319 -25.3538 5.88848 -33.1834 2.39587 1.0394 -7.24189 -8.96558 2.06396 1.87397 
-208.315 86.1024 -172.094 111.309 -51.4673 101.184 -164.759 15.2441 82.8823 -62.8365 8.78595 -4.97856 89.8202 22.9908 4.26394 20.2488 -7.5086 5.13764 -177.853 34.4169 88.658 -82.9875 0.626478 -5.07037 74.6227 -10.654 -5.07987 16.8058 2.8925 5.58913 -0.168848 8.67173 -89.8177 9.52915 -0.254493 0.379166 -2.14187 -0.237522 0.389993 -24.6766 -0.356681 0.285151 -4.66395 -0.356641 0.285157 89.6414 -32.4933 -106.524 32.5487 5.2034 45.9711 -5.88191 -0.153788 -89.7135 -6.8454 3.06368 -58.2213 -87.4597 -51.0012 82.705 -22.973 -10.6003 9.27775 1.78661 -0.968554 -73.7556 -27.175 6.50487 -34.0911 1.92035 2.8321 -5.04497 -11.3033 3.44594 1.69078 
-203.516 86.0994 -167.712 112.807 -51.6568 104.024 -165.524 8.91074 84.3073 -61.9923 4.14136 -4.18992 95.6303 25.8945 0.729598 22.3924 -6.72851 5.98254 -179.036 38.4332 90.6146 -71.6421 -1.75212 -3.97651 69.5893 -6.3961 -5.45448 16.7051 2.65031 6.26226 -0.613739 8.84443 -90.1417 9.18467 -1.28734 -0.186417 -2.48563 -1.29428 -0.129577 -25.0252 -1.17182 -0.564755 -5.01253 -1.17179 -0.564748 90.1684 -31.7595 -105.778 33.2478 3.2903 47.5346 -5.92899 -0.756321 -92.1717 -13.2239 5.9061 -55.268 -87.8113 -49.1689 81.8583 -22.7836 -11.0365 -9.09506 7.62141 3.57979 -53.2517 -30.0757 11.1784 -45.3079 0.413563 3.85186 -5.06476 -11.8225 4.2201 3.64036 
-198.828 86.4802 -162.988 115.27 -52.1798 109.689 -165.275 2.98535 87.9526 -61.3851 1.99148 -3.28187 96.6057 25.7817 -0.0354859 27.8373 -4.42056 7.7339 177.969 37.0632 94.9225 -53.7004 -0.547432 -0.663995 62.2384 -1.03315 -2.51309 15.6264 2.6547 7.22014 -0.918267 9.19696 -90.811 8.46761 -2.19051 -1.47197 -3.20219 -2.25318 -1.3741 -25.7403 -1.64695 -2.06221 -5.72767 -1.64694 -2.06221 91.1451 -30.0625 -104.46 33.1974 2.42722 48.1886 -7.20819 -0.155449 -94.5029 -16.2149 6.80516 -52.234 -88.0256 -49.3639 81.5694 -23.8827 -9.17844 -13.2214 5.33881 2.05109 -51.8604 -28.4251 8.96332 -40.3407 -0.447194 4.72294 -2.54395 -11.4832 4.68146 4.00667 
-193.35 87.1373 -158.066 115.797 -52.7312 111.292 -165.211 -0.688807 89.3479 -62.102 2.44134 -2.97507 90.7099 20.5991 0.113074 35.4223 0.12021 7.42936 175.957 31.906 96.1133 -33.1735 -4.34545 2.35142 56.6946 1.93946 0.93595 17.0015 2.08174 7.36552 -1.24172 9.46299 -91.2184 7.91335 -3.011 -2.24093 -3.75581 -3.10669 -2.10622 -26.2922 -2.19863 -3.04202 -6.27958 -2.19863 -3.04202 91.3942 -29.3915 -104.196 32.633 2.94714 46.3524 -4.67681 -0.271267 -94.5893 -16.7817 6.74672 -50.3454 -88.0121 -48.0558 81.3458 -25.0457 -7.79429 -26.5418 5.77094 4.21443 -39.5346 -32.8695 10.4943 -41.9015 -0.91229 4.881 -0.878174 -11.132 4.56841 4.63412 
-187.365 87.3697 -153.021 113.978 -53.6678 107.995 -165.339 -2.38402 87.7924 -63.4237 6.0901 -3.54545 80.0143 13.3448 2.52732 45.2304 6.77446 2.95474 174.854 28.8437 94.8715 -20.9642 -4.74303 3.06269 56.1774 1.83356 1.41235 16.8182 2.24658 7.12975 -1.55978 9.4291 -91.2811 7.97312 -3.67381 -2.32564 -3.69442 -3.77259 -2.16159 -26.2398 -2.80537 -3.32217 -6.22713 -2.80536 -3.32217 91.027 -29.7309 -104.814 32.9362 2.05748 43.141 4.76266 -0.463244 -93.4563 -17.8877 6.81346 -48.039 -88.4808 -47.0686 80.4308 -25.7561 -6.98622 -38.2469 6.97741 9.31615 -28.5901 -23.8482 8.04433 -45.4468 -4.27263 4.28861 -0.197403 -8.513 3.93738 5.56192 
-181.717 87.0213 -148.392 110.877 -54.8658 102.455 -165.04 -0.0273267 85.2685 -68.0682 11.9689 -3.92446 67.0166 4.29439 3.58099 41.5019 6.3549 -1.27842 173.231 31.6887 92.2774 -26.0826 -0.40293 3.79677 56.5594 2.16264 0.0637885 15.3876 3.47 5.55579 -1.67898 9.20555 -91.1882 8.42415 -3.87474 -2.11137 -3.24245 -3.9639 -1.93863 -25.7955 -3.06128 -3.1785 -5.78289 -3.06129 -3.17851 90.7337 -31.1675 -104.889 30.505 7.52714 43.8505 -2.23472 -0.309192 -91.8873 -16.7988 6.44907 -48.4297 -88.6311 -44.7561 79.7095 -27.3917 -5.76811 -56.3746 3.92699 17.0507 -8.01167 -17.8741 6.54383 -50.6603 -6.82328 3.15348 -0.387724 -7.74309 2.88615 5.1884 
-176.744 85.0663 -144.535 108.483 -56.0864 97.3542 -163.034 5.68366 82.6244 -76.8338 16.1981 -3.48745 56.772 -2.88375 1.56193 29.5034 0.162393 0.400253 172.155 41.3226 89.1102 -43.6325 -8.00441 4.01198 59.1777 2.41724 -2.47515 1.36048 8.16842 7.47243 -1.66836 9.16771 -91.0854 8.50428 -3.80885 -1.90804 -3.16224 -3.88911 -1.7384 -25.7176 -3.05947 -2.96489 -5.70493 -3.05946 -2.9649 90.1728 -32.0562 -105.666 28.6384 11.0102 43.065 -2.07167 -0.269374 -91.2054 -18.7884 7.18213 -48.1248 -88.4802 -42.9701 79.5708 -28.0307 -4.25267 -64.887 2.65963 20.1754 -3.54439 -15.2476 5.66511 -52.3529 -6.20604 1.71241 -0.0890709 -7.91415 1.48985 3.82836 
-172.669 82.6568 -141.854 109.659 -57.7985 97.6826 -159.155 13.4172 81.0698 -88.8046 15.2584 -1.74488 62.4336 1.67051 3.95192 30.5161 0.713365 0.296258 172.343 46.834 88.8665 -57.6908 -9.57049 1.76676 62.8885 -0.869488 -3.14476 5.70293 6.14085 7.94691 -1.4619 9.57315 -91.1558 7.69185 -3.42131 -2.10371 -3.97606 -3.51058 -1.95101 -26.5211 -2.63114 -3.03468 -6.50849 -2.63117 -3.03469 87.8647 -33.7484 -109.393 24.919 17.54 42.9148 -0.876043 -0.267135 -91.6388 -16.9832 6.22131 -46.6671 -88.7302 -42.2071 78.9906 -27.8502 -3.13999 -70.6654 2.68734 18.0312 -3.74121 -16.374 6.05307 -51.5783 -4.42327 0.118649 -0.496814 -5.72034 0.0695217 2.43642 
